<svg id="Шар_1" data-name="Шар 1" xmlns="http://www.w3.org/2000/svg" viewBox="0 0 128.25 128.25"><defs><style>.cls-1{fill:#efefef;}.cls-2{fill:none;}</style></defs><title>download</title><path class="cls-1" d="M258,219.22V179.87a4.21,4.21,0,0,0-4.21-4.21h-31a4.21,4.21,0,0,0-4.21,4.21v39.34a4.21,4.21,0,0,1-4.21,4.21H199.29a4.21,4.21,0,0,0-3.23,6.9l39,46.8a4.21,4.21,0,0,0,6.46,0l39-46.8a4.21,4.21,0,0,0-3.23-6.9H262.19A4.21,4.21,0,0,1,258,219.22Z" transform="translate(-174.16 -163.03)"/><rect class="cls-2" width="128.25" height="128.25"/></svg>