<svg id="Шар_3" data-name="Шар 3" xmlns="http://www.w3.org/2000/svg" viewBox="0 0 128.25 128.25"><defs><style>.cls-1{fill:none;}.cls-2{fill:#efefef;stroke:#6b6966;stroke-miterlimit:10;stroke-width:3px;}</style></defs><title>js</title><rect class="cls-1" width="128.25" height="128.25"/><path class="cls-2" d="M213.43,186.64h17.65V234c0,21.33-10.68,28.77-27.86,28.77a48,48,0,0,1-12.89-1.78l2-13.66a30.32,30.32,0,0,0,9.06,1.33c7.43,0,12.08-3.22,12.08-14.88V186.64Z" transform="translate(-174.16 -163.03)"/><path class="cls-2" d="M245.13,246.73a35.68,35.68,0,0,0,15.21,4.11c5.34,0,7.55-1.78,7.55-4.55s-1.74-4.11-8.36-6.22c-11.73-3.78-16.25-9.89-16.14-16.33,0-10.11,9.06-17.77,23.1-17.77a39.56,39.56,0,0,1,16,3.11l-3.13,11.66a28.84,28.84,0,0,0-12.31-3.11c-4.3,0-6.73,1.67-6.73,4.44,0,2.55,2.21,3.89,9.17,6.22,10.8,3.55,15.33,8.77,15.44,16.77,0,10.11-8.36,17.55-24.61,17.55-7.43,0-14-1.56-18.34-3.78Z" transform="translate(-174.16 -163.03)"/></svg>