<svg id="Шар_3" data-name="Шар 3" xmlns="http://www.w3.org/2000/svg" viewBox="0 0 43.13 26"><defs><style>.cls-1{fill:none;}.cls-2{fill:#efefef;}</style></defs><title>logo</title><rect class="cls-1" width="43.13" height="26"/><path class="cls-2" d="M168.63,224.93c0.52,5,0,12,2.61,16.43,0.47,0.81,2.38.27,2.79-.39,3.39-5.46,4.85-11.86,9.66-16.36l-2.5.36a22.81,22.81,0,0,0,4.42,3.49c0.78,0.38,3.45-.79,2.32-1.33-1.48-.71-2.8-2.19-4-3.25-0.61-.52-2-0.13-2.5.36-5,4.71-6.5,11.05-10,16.75l2.79-.39c-2.6-4.43-2.1-11.39-2.61-16.43-0.09-.86-3-0.25-2.9.78h0Z" transform="translate(-164.63 -219)"/><path class="cls-2" d="M179,233.61l-3.33,7.88c-0.21.5,2.54,0.26,2.86-.5l3.33-7.88c0.21-.5-2.54-0.26-2.86.5h0Z" transform="translate(-164.63 -219)"/><path class="cls-2" d="M182.39,233.55c-0.82,2.66-2,5.16-3.08,7.73-0.38.91,2.43,0.46,2.79-.19,1.82-3.23,3.82-6.09,7-8.11h-2.34c0.36,0.68.95,1.22,1.3,1.9,0.48,0.94,3.29,0,2.9-.78s-0.93-1.23-1.3-1.9-1.79-.35-2.34,0a23.57,23.57,0,0,0-7.91,8.87l2.79-.19c1.06-2.57,2.26-5.07,3.08-7.73,0.29-.94-2.6-0.55-2.89.39h0Z" transform="translate(-164.63 -219)"/><path class="cls-2" d="M180.53,232.29c1.15,0,3.05-1.74,1.1-1.74-1.15,0-3.05,1.74-1.1,1.74h0Z" transform="translate(-164.63 -219)"/><path class="cls-2" d="M194.93,226.29q-2.82,7.11-5.5,14.27c-0.59,1.57,2.31,1.57,2.77.35q2.68-7.16,5.5-14.27c0.62-1.55-2.29-1.56-2.77-.35h0Z" transform="translate(-164.63 -219)"/><path class="cls-2" d="M197.5,226.78a2.79,2.79,0,0,1,3.6-.71l-0.23-.84a8.2,8.2,0,0,1-5,4.6c-0.48.14-1.4,0.57-1.23,1.22s1.21,0.58,1.67.45a11.47,11.47,0,0,0,7.29-6.1,0.58,0.58,0,0,0-.23-0.84,7,7,0,0,0-8.24,1.59c-1.14,1.34,1.64,1.47,2.36.63h0Z" transform="translate(-164.63 -219)"/><path class="cls-2" d="M195.2,232.85c2.46-1.09,5.41,1,6.09,3.35,0.45,1.54-.08,3.2-1.91,3.38a3.55,3.55,0,0,1-2.23-.65c-0.87-.94.34-2,1-2.57,1.2-1-1.7-.64-2.26-0.23-1.49,1.09-4,4.41-1.6,5.84,0.76,0.46,3.26-.72,2.72-1-1.8-1.08,0-3.71,1.14-4.56l-2.26-.23c-0.72.63-2.07,1.75-2,2.85s1.84,1.7,2.79,1.85c2.29,0.38,5.52-.32,7-2.22,1.66-2.07,0-5.15-2-6.36a8.55,8.55,0,0,0-7.61-.26c-1.86.83-.12,1.38,1.06,0.86h0Z" transform="translate(-164.63 -219)"/></svg>