<svg id="Шар_3" data-name="Шар 3" xmlns="http://www.w3.org/2000/svg" viewBox="0 0 114 74.33"><defs><style>.cls-1{fill:none;}.cls-2{fill:#efefef;}</style></defs><title>logo</title><rect class="cls-1" width="114" height="74.33"/><path class="cls-2" d="M207.2,119c-5.3,14.56-10.17,29.27-14.79,44.06-0.29.93,1.18,1,1.7,1,7,0.34,14.37,1.72,18.08-5.8,1.2-2.44,2.11-6.17.73-8.75-1.61-3-5.34-3.25-8.37-3.23l-2.36,2.88c5.85-.33,12.35-0.89,15.3-6.9,3.88-7.9-4.55-11.69-11.16-11.18-1.86.14-6.2,3.17-2.36,2.88,4.65-.35,9.73,2,8.4,7.4-1.1,4.49-4,4.7-7.81,4.92-1.81.1-6.3,2.91-2.36,2.88,5.37,0,6.42,4,4.89,8.34-1.79,5.11-6.25,3.89-10.61,3.68l1.7,1c4.62-14.79,9.49-29.5,14.79-44.06,0.57-1.57-5.13-.89-5.76.85h0Z" transform="translate(-164.25 -103.46)"/><path class="cls-2" d="M215.2,151.84c-1.1,3.71-2.35,7.35-3.77,10.95-1.14,2.89,4.65,2.5,5.47.41q2.32-5.88,4.13-11.93c0.72-2.41-5.17-1.67-5.84.58h0Z" transform="translate(-164.25 -103.46)"/><path class="cls-2" d="M222,152.22q-3.88,11.18-8.36,22.12c-1.29,3.16,4.53,3.33,5.57.79q4.48-10.94,8.36-22.12c1.12-3.24-4.67-3.39-5.57-.79h0Z" transform="translate(-164.25 -103.46)"/><path class="cls-2" d="M223.78,154c1.41,0.14,3.57-.12,4.88.45,2.13,0.92,1.66,3.55,1.35,5.4a8.08,8.08,0,0,1-.61,2.28c0.05-.1-0.62.93-0.63,0.88a1.09,1.09,0,0,0,.67-0.27,18.08,18.08,0,0,0-2.27,0c-1.15,0-2.3-.06-3.45-0.07s-3.29.44-3.86,1.45,0.53,1.2,1.44,1.2c4.6,0,12,.93,14-4.56,0.77-2.05,1.43-5.77-.13-7.57-1.78-2-5.31-1.57-7.73-1.81a6.17,6.17,0,0,0-4.1,1.1c-0.86.68-.79,1.41,0.41,1.53h0Z" transform="translate(-164.25 -103.46)"/><path class="cls-2" d="M201.71,112.93c-6,16.54-11.65,33.22-17,50-0.7,2.19,5.14,1.45,5.82-.65,5.37-16.77,11-33.45,17-50,0.77-2.11-5.06-1.42-5.82.65h0Z" transform="translate(-164.25 -103.46)"/><path class="cls-2" d="M201.72,113.38c2.3,8.13,14.55,10.45,21.55,8.09,7.69-2.6,11.12-13.14,2.17-16.7-1.61-.64-6.89,1.77-4.65,2.67,6.59,2.62,5.51,12.31-3.11,11.68-4-.29-9-3.33-10.16-7.28-0.52-1.84-6.32-.28-5.8,1.55h0Z" transform="translate(-164.25 -103.46)"/><path class="cls-2" d="M220.25,148c3.22,0,3.22-5,0-5s-3.22,5,0,5h0Z" transform="translate(-164.25 -103.46)"/><path class="cls-2" d="M246.35,127.71q-3.1,11.74-6.87,23.28c-0.48,1.48,4.94-.26,5.48-0.75,3.24-2.92,6.08,7.74,5.3,9.9-1.42,3.94-7.1,2.69-10.46,2.32-1.24-.13-6.6,2-3.77,2.33,6.73,0.73,19.79,1.8,20.29-7.9s-10.51-11.67-16.6-6.18l5.48-.75q3.77-11.54,6.87-23.28c0.3-1.14-5.33-.41-5.71,1h0Z" transform="translate(-164.25 -103.46)"/><path class="cls-2" d="M248.43,128.85l14.75,0.28c1.32,0,3.21-.35,3.78-1.76a1.74,1.74,0,0,0-1.75-2.37l-14.75-.28c-1.32,0-3.21.35-3.78,1.76a1.74,1.74,0,0,0,1.75,2.37h0Z" transform="translate(-164.25 -103.46)"/><path class="cls-2" d="M237.58,156.06c-0.85,2.64-1.72,5.28-2.57,7.93-0.65,2,5.17,1.27,5.8-.71,0.84-2.65,1.72-5.28,2.57-7.93,0.65-2-5.16-1.26-5.8.71h0Z" transform="translate(-164.25 -103.46)"/><path class="cls-2" d="M254.49,126q2.65-.34,2.4,1.4,0,0.83,0,1.66,0,1.66,0,3.32c0,2.22-.11,4.43-0.21,6.65a0.63,0.63,0,0,0,1.25,0c0.11-2.58.19-5.17,0.22-7.75,0-1.72.47-4.28-.19-6-0.9-2.28-2.91-1.53-4.34-.2a0.63,0.63,0,0,0,.88.88h0Z" transform="translate(-164.25 -103.46)"/><path class="cls-2" d="M258.56,127.83a29.76,29.76,0,0,1,.14,4.5,0.63,0.63,0,0,0,1.25,0,29.76,29.76,0,0,0-.14-4.5c-0.09-.79-1.34-0.8-1.25,0h0Z" transform="translate(-164.25 -103.46)"/><path class="cls-2" d="M254.38,128.17v1.67a0.63,0.63,0,0,0,1.25,0v-1.67a0.63,0.63,0,0,0-1.25,0h0Z" transform="translate(-164.25 -103.46)"/><path class="cls-2" d="M245.6,133.59a267.68,267.68,0,0,1-20.54,21.72,0.63,0.63,0,0,0,.88.88,267.68,267.68,0,0,0,20.54-21.72c0.52-.61-0.36-1.5-0.88-0.88h0Z" transform="translate(-164.25 -103.46)"/><path class="cls-2" d="M244,137.72q-6.46,8.69-12.11,17.93a0.63,0.63,0,0,0,1.08.63q5.65-9.24,12.11-17.93c0.48-.65-0.6-1.27-1.08-0.63h0Z" transform="translate(-164.25 -103.46)"/><path class="cls-2" d="M201.81,144q6-3.42,11.79-7.19a0.63,0.63,0,0,0-.63-1.08q-5.79,3.77-11.79,7.19a0.63,0.63,0,0,0,.63,1.08h0Z" transform="translate(-164.25 -103.46)"/><path class="cls-2" d="M202.59,146.57l10.75-6.5a0.63,0.63,0,0,0-.63-1.08L202,145.49a0.63,0.63,0,0,0,.63,1.08h0Z" transform="translate(-164.25 -103.46)"/><path class="cls-2" d="M218.42,121.75l1.64,22.87c0.06,0.8,1.31.8,1.25,0l-1.64-22.87c-0.06-.8-1.31-0.8-1.25,0h0Z" transform="translate(-164.25 -103.46)"/><path class="cls-2" d="M212.81,150.77l6-3.94c0.67-.44,0-1.52-0.63-1.08l-6,3.94c-0.67.44,0,1.52,0.63,1.08h0Z" transform="translate(-164.25 -103.46)"/><path class="cls-2" d="M220.49,145.8l5.25,7.63c0.45,0.66,1.54,0,1.08-.63l-5.25-7.63c-0.45-.66-1.54,0-1.08.63h0Z" transform="translate(-164.25 -103.46)"/><path class="cls-2" d="M220.07,121c0.82,7.1,2.5,15.63,10.66,17.44,7.4,1.64,13.6-3.64,16.59-9.92,0.34-.72-0.73-1.36-1.08-0.63-2.74,5.76-8.26,10.79-15.18,9.34-7.56-1.59-9-9.8-9.74-16.23-0.09-.79-1.34-0.8-1.25,0h0Z" transform="translate(-164.25 -103.46)"/><path class="cls-2" d="M197.78,136.95l5.87-5c0.61-.52-0.27-1.4-0.88-0.88l-5.87,5c-0.61.52,0.27,1.4,0.88,0.88h0Z" transform="translate(-164.25 -103.46)"/><path class="cls-2" d="M190.7,156.8l9.35-6.41c0.66-.45,0-1.54-0.63-1.08l-9.35,6.41c-0.66.45,0,1.54,0.63,1.08h0Z" transform="translate(-164.25 -103.46)"/></svg>