<svg id="Шар_3" data-name="Шар 3" xmlns="http://www.w3.org/2000/svg" viewBox="0 0 45.47 29.65"><defs><style>.cls-1{fill:none;}.cls-2{fill:#efefef;}</style></defs><title>logo</title><rect class="cls-1" width="45.47" height="29.65"/><path class="cls-2" d="M184.53,131.32a37.28,37.28,0,0,0,9.64-5.45l-2.56.13-3.91,20c-0.13.67,1.31,0.38,1.58,0.3,5.52-1.5,7.33-5.93,8.47-11.19,0.17-.79-2.7-0.34-2.87.46-0.77,3.54-1.74,8.53-5.88,9.66l1.58,0.3,3.91-20c0.18-.94-2.27-0.1-2.56.13a32.6,32.6,0,0,1-8.44,4.83c-1.91.74-.13,1.28,1,0.83h0Z" transform="translate(-179.85 -120.95)"/><path class="cls-2" d="M214.62,126l-3.91,20c-0.09.44,0.55,0.43,0.83,0.43,3.77,0,6.91-.83,7.19-5.07,0-.55-2.84-0.17-2.9.78-0.15,2.29-1,3-3.07,3l0.83,0.43,3.91-20c0.16-.81-2.71-0.33-2.87.46h0Z" transform="translate(-179.85 -120.95)"/><path class="cls-2" d="M198.42,135.5L196.36,146c-0.16.81,2.71,0.33,2.87-.46L201.29,135c0.16-.81-2.71-0.33-2.87.46h0Z" transform="translate(-179.85 -120.95)"/><path class="cls-2" d="M202.18,135.5L200.12,146c-0.16.81,2.71,0.33,2.87-.46L205,135c0.16-.81-2.71-0.33-2.87.46h0Z" transform="translate(-179.85 -120.95)"/><path class="cls-2" d="M203.7,136.36c0.84-.17,3.81-0.59,3.74.78s-2.3,1.48-3.25,1.49a2.6,2.6,0,0,0-1.93.73c-0.3.54,0.26,0.63,0.73,0.63a13.09,13.09,0,0,0,4.49-.85,4.42,4.42,0,0,0,2.75-2.17c1-2.8-4.69-2.18-6.05-1.91-0.43.08-1.59,0.31-1.68,0.87s0.89,0.48,1.2.42h0Z" transform="translate(-179.85 -120.95)"/><path class="cls-2" d="M204.07,140.14c0.86,0,1.72,0,2.58,0a3.92,3.92,0,0,1,1.32.07,9.33,9.33,0,0,1-.11,1,34.74,34.74,0,0,1-.8,4.79c-0.22.93,2.67,0.49,2.89-.41a34.49,34.49,0,0,0,.64-3.47c0.1-.74.51-2.08,0.18-2.79s-1.16-.6-1.78-0.64a36.74,36.74,0,0,0-3.75,0,2.46,2.46,0,0,0-1.92.76c-0.29.55,0.24,0.75,0.75,0.73h0Z" transform="translate(-179.85 -120.95)"/><path class="cls-2" d="M205.37,142.39l10.36,0a3.11,3.11,0,0,0,2-.55c0.27-.32.55-0.67-0.18-0.67l-10.36,0a3.11,3.11,0,0,0-2,.55c-0.27.32-.55,0.67,0.18,0.67h0Z" transform="translate(-179.85 -120.95)"/><path class="cls-2" d="M216.23,135.85l-1.33.35,0.28,0.07a1.81,1.81,0,0,1,.64.62,3.62,3.62,0,0,1,.22,1.42A2.61,2.61,0,0,1,214.2,141c-0.33.13-1.12,0.41-.85,0.86s1.62,0,1.87-.14c2.28-.91,4-2.16,3.68-4.87-0.32-2.35-3.35-2.22-4.9-1.11-0.48.35-.33,0.58,0.18,0.68a3.25,3.25,0,0,0,2-.55h0Z" transform="translate(-179.85 -120.95)"/><path class="cls-2" d="M201.2,132.16a1.79,1.79,0,0,0-1.63.56,0.88,0.88,0,0,0,.4,1.3,1,1,0,0,0,1-.59,2.84,2.84,0,0,0,.18-1.28" transform="translate(-179.85 -120.95)"/><path class="cls-2" d="M201.44,132a3.17,3.17,0,0,0-1.89.44,1,1,0,0,0-.29,1.44,1.22,1.22,0,0,0,1.5.09,1.89,1.89,0,0,0,.8-1.92,0.67,0.67,0,0,0-.72.19,2.9,2.9,0,0,1-.15,1.17c-0.18.41-.51,0.61-0.78,0.17a0.93,0.93,0,0,1-.08-0.74,1,1,0,0,1,1.13-.55,0.8,0.8,0,0,0,.51-0.14c0.07-.08.14-0.15,0-0.15h0Z" transform="translate(-179.85 -120.95)"/></svg>